<?xml version="1.0" encoding="UTF-8" standalone="no"?>
<!DOCTYPE svg PUBLIC "-//W3C//DTD SVG 1.1//EN"
 "http://www.w3.org/Graphics/SVG/1.1/DTD/svg11.dtd">
<!-- Generated by graphviz version 2.43.0 (0)
 -->
<!-- Title: dependency&#45;cruiser output Pages: 1 -->
<svg width="425pt" height="202pt"
 viewBox="0.00 0.00 425.00 202.00" xmlns="http://www.w3.org/2000/svg" xmlns:xlink="http://www.w3.org/1999/xlink">
<g id="graph0" class="graph" transform="scale(1 1) rotate(0) translate(4 198)">
<title>dependency&#45;cruiser output</title>
<polygon fill="white" stroke="transparent" points="-4,4 -4,-198 421,-198 421,4 -4,4"/>
<g id="clust1" class="cluster">
<title>cluster_src</title>
<path fill="#ffffff" stroke="black" stroke-width="2" d="M20,-8C20,-8 397,-8 397,-8 403,-8 409,-14 409,-20 409,-20 409,-174 409,-174 409,-180 403,-186 397,-186 397,-186 20,-186 20,-186 14,-186 8,-180 8,-174 8,-174 8,-20 8,-20 8,-14 14,-8 20,-8"/>
<text text-anchor="middle" x="208.5" y="-174.8" font-family="Helvetica,sans-Serif" font-weight="bold" font-size="9.00">src</text>
</g>
<g id="clust2" class="cluster">
<title>cluster_src/core</title>
<path fill="#ffffff" stroke="black" stroke-width="2" d="M90,-16C90,-16 277,-16 277,-16 283,-16 289,-22 289,-28 289,-28 289,-56 289,-56 289,-62 283,-68 277,-68 277,-68 90,-68 90,-68 84,-68 78,-62 78,-56 78,-56 78,-28 78,-28 78,-22 84,-16 90,-16"/>
<text text-anchor="middle" x="183.5" y="-56.8" font-family="Helvetica,sans-Serif" font-weight="bold" font-size="9.00">core</text>
</g>
<g id="clust3" class="cluster">
<title>cluster_src/models</title>
<path fill="#ffffff" stroke="black" stroke-width="2" d="M314,-38C314,-38 389,-38 389,-38 395,-38 401,-44 401,-50 401,-50 401,-138 401,-138 401,-144 395,-150 389,-150 389,-150 314,-150 314,-150 308,-150 302,-144 302,-138 302,-138 302,-50 302,-50 302,-44 308,-38 314,-38"/>
<text text-anchor="middle" x="351.5" y="-138.8" font-family="Helvetica,sans-Serif" font-weight="bold" font-size="9.00">models</text>
</g>
<g id="clust4" class="cluster">
<title>cluster_src/services</title>
<path fill="#ffffff" stroke="black" stroke-width="2" d="M204,-78C204,-78 282,-78 282,-78 288,-78 294,-84 294,-90 294,-90 294,-148 294,-148 294,-154 288,-160 282,-160 282,-160 204,-160 204,-160 198,-160 192,-154 192,-148 192,-148 192,-90 192,-90 192,-84 198,-78 204,-78"/>
<text text-anchor="middle" x="243" y="-148.8" font-family="Helvetica,sans-Serif" font-weight="bold" font-size="9.00">services</text>
</g>
<!-- src/core/LendingProtocol.js -->
<g id="node1" class="node">
<title>src/core/LendingProtocol.js</title>
<g id="a_node1"><a xlink:href="src/core/LendingProtocol.js" xlink:title="LendingProtocol.js">
<path fill="#ffffcc" stroke="black" d="M178,-42C178,-42 92,-42 92,-42 89,-42 86,-39 86,-36 86,-36 86,-30 86,-30 86,-27 89,-24 92,-24 92,-24 178,-24 178,-24 181,-24 184,-27 184,-30 184,-30 184,-36 184,-36 184,-39 181,-42 178,-42"/>
<text text-anchor="start" x="94" y="-30.8" font-family="Helvetica,sans-Serif" font-size="9.00">LendingProtocol.js</text>
</a>
</g>
</g>
<!-- src/models/LiquidityPool.js -->
<g id="node2" class="node">
<title>src/models/LiquidityPool.js</title>
<g id="a_node2"><a xlink:href="src/models/LiquidityPool.js" xlink:title="LiquidityPool.js">
<path fill="#ffffcc" stroke="black" d="M387,-64C387,-64 316,-64 316,-64 313,-64 310,-61 310,-58 310,-58 310,-52 310,-52 310,-49 313,-46 316,-46 316,-46 387,-46 387,-46 390,-46 393,-49 393,-52 393,-52 393,-58 393,-58 393,-61 390,-64 387,-64"/>
<text text-anchor="start" x="318" y="-52.8" font-family="Helvetica,sans-Serif" font-size="9.00">LiquidityPool.js</text>
</a>
</g>
</g>
<!-- src/core/LendingProtocol.js&#45;&gt;src/models/LiquidityPool.js -->
<g id="edge1" class="edge">
<title>src/core/LendingProtocol.js&#45;&gt;src/models/LiquidityPool.js</title>
<path fill="none" stroke="#000000" stroke-width="2" stroke-opacity="0.200000" d="M164.81,-42C173.47,-44.36 183.05,-46.62 192,-48 229.26,-53.74 271.99,-55.35 303.68,-55.59"/>
<polygon fill="#000000" fill-opacity="0.200000" stroke="#000000" stroke-width="2" stroke-opacity="0.200000" points="303.86,-57.69 309.87,-55.63 303.88,-53.49 303.86,-57.69"/>
</g>
<!-- src/models/UserPosition.js -->
<g id="node3" class="node">
<title>src/models/UserPosition.js</title>
<g id="a_node3"><a xlink:href="src/models/UserPosition.js" xlink:title="UserPosition.js">
<path fill="#ffffcc" stroke="black" d="M386,-94C386,-94 317,-94 317,-94 314,-94 311,-91 311,-88 311,-88 311,-82 311,-82 311,-79 314,-76 317,-76 317,-76 386,-76 386,-76 389,-76 392,-79 392,-82 392,-82 392,-88 392,-88 392,-91 389,-94 386,-94"/>
<text text-anchor="start" x="319" y="-82.8" font-family="Helvetica,sans-Serif" font-size="9.00">UserPosition.js</text>
</a>
</g>
</g>
<!-- src/core/LendingProtocol.js&#45;&gt;src/models/UserPosition.js -->
<g id="edge2" class="edge">
<title>src/core/LendingProtocol.js&#45;&gt;src/models/UserPosition.js</title>
<path fill="none" stroke="#000000" stroke-width="2" stroke-opacity="0.200000" d="M156.42,-42.09C166.9,-46.48 179.96,-51.53 192,-55 202.76,-58.1 261.97,-69.04 304.87,-76.81"/>
<polygon fill="#000000" fill-opacity="0.200000" stroke="#000000" stroke-width="2" stroke-opacity="0.200000" points="304.53,-78.89 310.81,-77.89 305.28,-74.75 304.53,-78.89"/>
</g>
<!-- src/services/AssetRegistry.js -->
<g id="node4" class="node">
<title>src/services/AssetRegistry.js</title>
<g id="a_node4"><a xlink:href="src/services/AssetRegistry.js" xlink:title="AssetRegistry.js">
<path fill="#ffffcc" stroke="black" d="M280,-134C280,-134 206,-134 206,-134 203,-134 200,-131 200,-128 200,-128 200,-122 200,-122 200,-119 203,-116 206,-116 206,-116 280,-116 280,-116 283,-116 286,-119 286,-122 286,-122 286,-128 286,-128 286,-131 283,-134 280,-134"/>
<text text-anchor="start" x="208" y="-122.8" font-family="Helvetica,sans-Serif" font-size="9.00">AssetRegistry.js</text>
</a>
</g>
</g>
<!-- src/core/LendingProtocol.js&#45;&gt;src/services/AssetRegistry.js -->
<g id="edge3" class="edge">
<title>src/core/LendingProtocol.js&#45;&gt;src/services/AssetRegistry.js</title>
<path fill="none" stroke="#000000" stroke-width="2" stroke-opacity="0.200000" d="M140.14,-42.09C147.94,-58.22 166.38,-91.84 192,-110 193.63,-111.15 195.34,-112.22 197.12,-113.2"/>
<polygon fill="#000000" fill-opacity="0.200000" stroke="#000000" stroke-width="2" stroke-opacity="0.200000" points="196.31,-115.14 202.62,-115.92 198.17,-111.38 196.31,-115.14"/>
</g>
<!-- src/services/PriceOracle.js -->
<g id="node5" class="node">
<title>src/services/PriceOracle.js</title>
<g id="a_node5"><a xlink:href="src/services/PriceOracle.js" xlink:title="PriceOracle.js">
<path fill="#ffffcc" stroke="black" d="M275.5,-104C275.5,-104 210.5,-104 210.5,-104 207.5,-104 204.5,-101 204.5,-98 204.5,-98 204.5,-92 204.5,-92 204.5,-89 207.5,-86 210.5,-86 210.5,-86 275.5,-86 275.5,-86 278.5,-86 281.5,-89 281.5,-92 281.5,-92 281.5,-98 281.5,-98 281.5,-101 278.5,-104 275.5,-104"/>
<text text-anchor="start" x="212.5" y="-92.8" font-family="Helvetica,sans-Serif" font-size="9.00">PriceOracle.js</text>
</a>
</g>
</g>
<!-- src/core/LendingProtocol.js&#45;&gt;src/services/PriceOracle.js -->
<g id="edge4" class="edge">
<title>src/core/LendingProtocol.js&#45;&gt;src/services/PriceOracle.js</title>
<path fill="none" stroke="#000000" stroke-width="2" stroke-opacity="0.200000" d="M147.54,-42.32C158.55,-50.94 175.8,-63.78 192,-73 198.63,-76.77 206.04,-80.35 213.07,-83.48"/>
<polygon fill="#000000" fill-opacity="0.200000" stroke="#000000" stroke-width="2" stroke-opacity="0.200000" points="212.53,-85.53 218.87,-86 214.2,-81.68 212.53,-85.53"/>
</g>
<!-- src/core/RiskEngine.js -->
<g id="node6" class="node">
<title>src/core/RiskEngine.js</title>
<g id="a_node6"><a xlink:href="src/core/RiskEngine.js" xlink:title="RiskEngine.js">
<path fill="#ffffcc" stroke="black" d="M275,-42C275,-42 211,-42 211,-42 208,-42 205,-39 205,-36 205,-36 205,-30 205,-30 205,-27 208,-24 211,-24 211,-24 275,-24 275,-24 278,-24 281,-27 281,-30 281,-30 281,-36 281,-36 281,-39 278,-42 275,-42"/>
<text text-anchor="start" x="213" y="-30.8" font-family="Helvetica,sans-Serif" font-size="9.00">RiskEngine.js</text>
</a>
</g>
</g>
<!-- src/core/LendingProtocol.js&#45;&gt;src/core/RiskEngine.js -->
<g id="edge5" class="edge">
<title>src/core/LendingProtocol.js&#45;&gt;src/core/RiskEngine.js</title>
<path fill="none" stroke="#000000" stroke-width="2" stroke-opacity="0.200000" d="M184.04,-33C188.97,-33 193.96,-33 198.83,-33"/>
<polygon fill="#000000" fill-opacity="0.200000" stroke="#000000" stroke-width="2" stroke-opacity="0.200000" points="198.93,-35.1 204.93,-33 198.93,-30.9 198.93,-35.1"/>
</g>
<!-- src/models/Asset.js -->
<g id="node8" class="node">
<title>src/models/Asset.js</title>
<g id="a_node8"><a xlink:href="src/models/Asset.js" xlink:title="Asset.js">
<path fill="#ffffcc" stroke="black" d="M372.5,-124C372.5,-124 330.5,-124 330.5,-124 327.5,-124 324.5,-121 324.5,-118 324.5,-118 324.5,-112 324.5,-112 324.5,-109 327.5,-106 330.5,-106 330.5,-106 372.5,-106 372.5,-106 375.5,-106 378.5,-109 378.5,-112 378.5,-112 378.5,-118 378.5,-118 378.5,-121 375.5,-124 372.5,-124"/>
<text text-anchor="start" x="334.5" y="-112.8" font-family="Helvetica,sans-Serif" font-size="9.00">Asset.js</text>
</a>
</g>
</g>
<!-- src/services/AssetRegistry.js&#45;&gt;src/models/Asset.js -->
<g id="edge7" class="edge">
<title>src/services/AssetRegistry.js&#45;&gt;src/models/Asset.js</title>
<path fill="none" stroke="#000000" stroke-width="2" stroke-opacity="0.200000" d="M286.09,-121.05C296.78,-120.04 308.1,-118.98 318.21,-118.03"/>
<polygon fill="#000000" fill-opacity="0.200000" stroke="#000000" stroke-width="2" stroke-opacity="0.200000" points="318.56,-120.11 324.34,-117.46 318.17,-115.93 318.56,-120.11"/>
</g>
<!-- src/index.js -->
<g id="node7" class="node">
<title>src/index.js</title>
<g id="a_node7"><a xlink:href="src/index.js" xlink:title="index.js">
<path fill="#ffffcc" stroke="black" d="M64,-42C64,-42 22,-42 22,-42 19,-42 16,-39 16,-36 16,-36 16,-30 16,-30 16,-27 19,-24 22,-24 22,-24 64,-24 64,-24 67,-24 70,-27 70,-30 70,-30 70,-36 70,-36 70,-39 67,-42 64,-42"/>
<text text-anchor="start" x="25.5" y="-30.8" font-family="Helvetica,sans-Serif" font-size="9.00">index.js</text>
</a>
</g>
</g>
<!-- src/index.js&#45;&gt;src/core/LendingProtocol.js -->
<g id="edge6" class="edge">
<title>src/index.js&#45;&gt;src/core/LendingProtocol.js</title>
<path fill="none" stroke="#000000" stroke-width="2" stroke-opacity="0.200000" d="M70.03,-33C73.15,-33 76.41,-33 79.74,-33"/>
<polygon fill="#000000" fill-opacity="0.200000" stroke="#000000" stroke-width="2" stroke-opacity="0.200000" points="79.81,-35.1 85.81,-33 79.81,-30.9 79.81,-35.1"/>
</g>
</g>
</svg>
